<svg width="196" height="42" viewBox="0 0 196 42" fill="none" xmlns="http://www.w3.org/2000/svg">
    <g clip-path="url(#clip0_1105_4660)">
    <mask id="mask0_1105_4660" style="mask-type:luminance" maskUnits="userSpaceOnUse" x="0" y="0" width="196" height="42">
    <path d="M196 0H0V42H196V0Z" fill="#e7e6d9"/>
    </mask>
    <g mask="url(#mask0_1105_4660)">
    <path d="M94.0212 22.9599C94.0212 18.203 91.8203 14.2378 84.9883 14.2378C81.263 14.2378 78.4559 15.2323 77.0335 16.0177L79.0685 19.6155C80.3952 19.0011 82.1689 18.545 83.8592 18.545C86.9978 18.545 87.5845 20.0716 87.5845 21.1483V22.3772C80.9565 22.3772 75.5663 23.9164 75.5663 29.1674C75.5663 32.3915 78.0351 35.3685 82.188 35.3685C84.6183 35.3685 86.7108 34.5007 88.0502 32.8918H88.178L88.5544 34.9188H94.0212V22.9662V22.9599ZM87.8017 26.089V27.5522C87.8017 27.9259 87.7568 28.2933 87.6738 28.6226C87.2594 29.9022 85.9581 30.9409 84.363 30.9409C82.9406 30.9409 81.4416 30.4975 81.4289 28.8824C81.448 26.317 84.2737 26.0826 87.7953 26.0826L87.8017 26.089Z" fill="#E7E6D9"/>
    <path d="M151.582 24.4359C151.627 18.2411 148.086 14.2316 143.263 14.2316C140.463 14.2316 138.364 15.3464 137.165 17.0819H137.082V6.26953H130.83V34.8872H135.972L136.22 32.0749H136.303C137.745 34.4692 140.01 35.3369 142.357 35.3369C146.97 35.3369 151.582 31.7012 151.582 24.4295V24.4359ZM140.877 30.3773C139.066 30.3773 137.624 29.0978 137.209 27.4066C137.126 27.0772 137.088 26.7035 137.088 26.2918V23.3211C137.088 22.9093 137.126 22.5356 137.209 22.1619C137.624 20.344 139.187 19.0645 140.877 19.0645C143.799 19.0645 145.203 21.5412 145.203 24.6829C145.203 28.3187 143.557 30.3837 140.877 30.3837V30.3773Z" fill="#E7E6D9"/>
    <path d="M196 22.9599C196 18.203 193.793 14.2378 186.967 14.2378C183.241 14.2378 180.435 15.2323 179.012 16.0177L181.047 19.6155C182.374 19.0011 184.147 18.545 185.838 18.545C188.977 18.545 189.563 20.0716 189.563 21.1483V22.3772C182.935 22.3772 177.545 23.9164 177.545 29.1674C177.545 32.3915 180.02 35.3685 184.166 35.3685C186.597 35.3685 188.689 34.5007 190.029 32.8918H190.156L190.533 34.9188H196V22.9662V22.9599ZM189.786 27.5522C189.786 27.9259 189.742 28.2933 189.659 28.6226C189.238 29.9022 187.943 30.9409 186.348 30.9409C184.925 30.9409 183.426 30.4975 183.42 28.8824C183.433 26.317 186.265 26.0826 189.78 26.0826V27.5522H189.786Z" fill="#E7E6D9"/>
    <path d="M168.639 6.26367V16.506H168.556C167.638 15.0998 165.673 14.232 163.172 14.232C158.292 14.232 153.993 18.1655 154.031 24.9874C154.031 31.2709 157.909 35.3627 162.751 35.3627C165.379 35.3627 167.842 34.2036 169.137 31.9296H169.22L169.513 34.9067H174.974V6.26367H168.639ZM168.633 25.8995C168.633 26.4379 168.588 26.894 168.467 27.35C168.091 29.1299 166.63 30.3651 164.792 30.3651C162.164 30.3651 160.455 28.2178 160.455 24.7847C160.455 21.5986 161.96 19.0397 164.837 19.0397C166.796 19.0397 168.174 20.4458 168.55 22.1434C168.594 22.4727 168.633 22.9288 168.633 23.2582V25.9059V25.8995Z" fill="#E7E6D9"/>
    <path d="M120.737 14.2378C119.231 14.2378 117.981 14.5672 116.859 15.2323C115.895 15.815 114.983 16.6384 114.23 17.6709H114.147C113.274 15.5616 111.187 14.2378 108.559 14.2378C105.05 14.2378 103.258 16.138 102.384 17.4239H102.257L101.963 14.6939H96.7897V34.9125H102.965V23.131C102.965 22.6369 103.009 22.0605 103.213 21.5601C103.59 20.5276 104.547 19.2861 106.174 19.2861C108.176 19.2861 109.095 21.0217 109.095 23.587V34.9188H115.27V23.0929C115.27 22.5989 115.353 21.9338 115.519 21.4841C115.934 20.2869 116.98 19.2925 118.441 19.2925C120.482 19.2925 121.445 20.99 121.445 23.9227V34.9188H127.621V23.0106C127.621 16.9741 124.66 14.2441 120.737 14.2441V14.2378Z" fill="#E7E6D9"/>
    <path d="M62.0867 29.6105H73.2697V34.9059H55.7013V7.03564H62.0867V29.6105Z" fill="#E7E6D9"/>
    <path d="M10.9895 7.3167L18.3554 20.1225L10.1598 34.9527L15.4345 34.9485L20.8954 24.8307L26.7119 34.9527H32.0881L16.3658 7.3125L10.9895 7.3167Z" fill="#E7E6D9"/>
    <path d="M0 0V42H42.3326V0H0ZM38.5946 38.3025H3.73797V3.6975H38.5946V38.3025Z" fill="#E7E6D9"/>
    </g>
    </g>
    <defs>
    <clipPath id="clip0_1105_4660">
    <rect width="196" height="42" fill="#e7e6d9"/>
    </clipPath>
    </defs>
</svg>